# File created by Blade
# Date/Time:  Wed Sep 24 20:21:23 2014
# Frame Rate: 120.000 fps
#------------------------------------------------------
:FULLY-SPECIFIED
:DEGREES
1135
root -2.963744 32.771860 -6.212138 15.485979 -4.398582 -2.098282
Spine -3.370825 3.126345 -2.239820
Head -13.134053 1.081973 8.680104
LeftShoulder -5.079683 13.472176 12.265776
LeftArm 35.195085 39.980320 -67.710354
LeftForeArm -0.258220 -0.000000 26.763896
LeftHand -26.171827 -0.000000 0.294189
LeftHandThumb1 -26.253704 0.000000 33.147579
RightShoulder -17.255576 13.689791 -23.787062
RightArm -8.404666 -48.734862 100.046963
RightForeArm -21.038383 -0.000000 30.862050
RightHand -4.892968 0.000000 -0.164933
RightHandThumb1 -24.326973 -0.000000 -32.862282
LeftUpLeg -13.612330 17.494980 -1.372434
LeftLeg -0.935910 -0.000000 0.000000
LeftFoot -11.197376 9.557307 -16.305069
LeftToeBase 8.196485 -0.000000 -0.000000
RightUpLeg -16.147337 -2.863399 0.351886
RightLeg 2.740179 -0.000000 -0.000000
RightFoot -6.702832 -1.583254 -5.277832
RightToeBase -1.769008 -0.000000 0.000000
1136
root -2.969024 32.772510 -6.214161 15.448971 -4.364097 -2.103929
Spine -3.405151 3.093246 -2.206516
Head -13.241364 1.089368 8.586576
LeftShoulder -5.108369 13.402277 12.258057
LeftArm 35.051848 39.878088 -67.863987
LeftForeArm -0.360208 0.000000 26.797210
LeftHand -26.154963 -0.000000 0.415931
LeftHandThumb1 -26.253704 0.000000 33.147579
RightShoulder -17.258350 13.693564 -23.790239
RightArm -8.384273 -48.678589 100.055853
RightForeArm -20.989698 -0.000000 31.188029
RightHand -4.843725 0.000000 -0.548102
RightHandThumb1 -24.326973 -0.000000 -32.862282
LeftUpLeg -13.588116 17.485894 -1.335484
LeftLeg -0.911896 -0.000000 0.000000
LeftFoot -11.152615 9.513914 -16.192824
LeftToeBase 8.137679 -0.000000 -0.000000
RightUpLeg -16.133145 -2.887300 0.372884
RightLeg 2.792156 -0.000000 -0.000000
RightFoot -6.723268 -1.597828 -5.289490
RightToeBase -1.786000 -0.000000 0.000000
1137
root -2.973296 32.772895 -6.215863 15.415921 -4.312117 -2.099949
Spine -3.452326 3.055405 -2.184212
Head -13.252870 1.105306 8.569357
LeftShoulder -5.100281 13.352576 12.277129
LeftArm 34.895659 39.715951 -68.097342
LeftForeArm -0.330959 0.000000 26.766187
LeftHand -26.134438 -0.000000 0.460257
LeftHandThumb1 -26.253704 0.000000 33.147579
RightShoulder -17.283942 13.672187 -23.779556
RightArm -8.336466 -48.648607 100.032995
RightForeArm -21.042962 -0.000000 31.501377
RightHand -4.927688 -0.000000 -0.697947
RightHandThumb1 -24.326973 -0.000000 -32.862282
LeftUpLeg -13.574581 17.474333 -1.318354
LeftLeg -0.886531 -0.000000 0.000000
LeftFoot -11.127279 9.479392 -16.151113
LeftToeBase 8.066357 -0.000000 -0.000000
RightUpLeg -16.125069 -2.956554 0.392662
RightLeg 2.850696 -0.000000 -0.000000
RightFoot -6.760869 -1.577844 -5.312969
RightToeBase -1.809216 -0.000000 0.000000
1138
root -2.977270 32.772525 -6.217111 15.375187 -4.252749 -2.094489
Spine -3.498893 3.030564 -2.159038
Head -13.287491 1.064519 8.539476
LeftShoulder -5.078472 13.350924 12.284153
LeftArm 34.854409 39.653584 -68.145737
LeftForeArm -0.397645 0.000000 26.793259
LeftHand -26.094823 -0.000000 0.457336
LeftHandThumb1 -26.253704 0.000000 33.147579
RightShoulder -17.286428 13.691775 -23.791447
RightArm -8.397802 -48.576132 100.083490
RightForeArm -21.139614 -0.000000 31.854713
RightHand -4.850879 -0.000000 -0.817827
RightHandThumb1 -24.326973 -0.000000 -32.862282
LeftUpLeg -13.564054 17.465669 -1.317063
LeftLeg -0.852622 -0.000000 0.000000
LeftFoot -11.184925 9.484099 -16.266062
LeftToeBase 8.142978 -0.000000 -0.000000
RightUpLeg -16.120029 -2.993399 0.399520
RightLeg 2.941712 -0.000000 -0.000000
RightFoot -6.827865 -1.584113 -5.295523
RightToeBase -1.758712 -0.000000 0.000000
1139
root -2.980195 32.772308 -6.218708 15.336794 -4.180532 -2.085414
Spine -3.541923 3.017455 -2.126411
Head -13.340861 1.031553 8.471953
LeftShoulder -5.059225 13.347923 12.280779
LeftArm 34.888504 39.657188 -68.104174
LeftForeArm -0.472075 -0.000000 26.797113
LeftHand -26.057722 -0.000000 0.429652
LeftHandThumb1 -26.253704 0.000000 33.147579
RightShoulder -17.337019 13.637632 -23.808751
RightArm -8.328806 -48.575322 100.051717
RightForeArm -21.233524 0.000000 32.177899
RightHand -4.831808 0.000000 -0.944050
RightHandThumb1 -24.326973 -0.000000 -32.862282
LeftUpLeg -13.553904 17.432166 -1.306721
LeftLeg -0.811296 -0.000000 0.000000
LeftFoot -11.196936 9.473804 -16.255149
LeftToeBase 8.135080 -0.000000 -0.000000
RightUpLeg -16.119621 -3.039050 0.408176
RightLeg 3.033904 -0.000000 -0.000000
RightFoot -6.883719 -1.637595 -5.322063
RightToeBase -1.726678 -0.000000 0.000000
1140
root -2.984310 32.772432 -6.219164 15.287868 -4.116666 -2.085344
Spine -3.578465 3.003268 -2.098331
Head -13.387472 1.030724 8.431238
LeftShoulder -5.022330 13.280237 12.318800
LeftArm 34.771196 39.530880 -68.341300
LeftForeArm -0.334611 -0.000000 26.640647
LeftHand -26.001021 -0.000000 0.216820
LeftHandThumb1 -26.253704 0.000000 33.147579
RightShoulder -17.343177 13.628083 -23.800653
RightArm -8.321626 -48.538756 100.049210
RightForeArm -21.332963 0.000000 32.495856
RightHand -4.938895 -0.000000 -1.079433
RightHandThumb1 -24.326973 -0.000000 -32.862282
LeftUpLeg -13.528433 17.411087 -1.279024
LeftLeg -0.778380 -0.000000 0.000000
LeftFoot -11.202933 9.450743 -16.209112
LeftToeBase 8.200028 -0.000000 -0.000000
RightUpLeg -16.099364 -3.109292 0.431820
RightLeg 3.103568 -0.000000 -0.000000
RightFoot -6.929043 -1.618215 -5.334850
RightToeBase -1.743328 -0.000000 0.000000
1141
root -2.988986 32.772259 -6.218844 15.241095 -4.035374 -2.081552
Spine -3.618702 2.964791 -2.058974
Head -13.445514 0.980877 8.354946
LeftShoulder -5.075652 13.300520 12.270768
LeftArm 34.938613 39.765166 -68.013559
LeftForeArm -0.508300 0.000000 26.749263
LeftHand -26.033938 -0.000000 0.384478
LeftHandThumb1 -26.253704 0.000000 33.147579
RightShoulder -17.361091 13.590513 -23.818948
RightArm -8.282935 -48.540814 100.046995
RightForeArm -21.408231 0.000000 32.824865
RightHand -4.884461 -0.000000 -1.105264
RightHandThumb1 -24.326973 -0.000000 -32.862282
LeftUpLeg -13.510397 17.394284 -1.256972
LeftLeg -0.736614 -0.000000 0.000000
LeftFoot -11.192957 9.386569 -16.222924
LeftToeBase 8.118625 -0.000000 -0.000000
RightUpLeg -16.071917 -3.141991 0.443325
RightLeg 3.166418 -0.000000 -0.000000
RightFoot -6.970062 -1.675130 -5.341533
RightToeBase -1.771499 -0.000000 0.000000
1142
root -2.991243 32.772051 -6.217899 15.193714 -3.964548 -2.065591
Spine -3.655982 2.926009 -2.040085
Head -13.518055 0.981581 8.303992
LeftShoulder -5.144231 13.262534 12.236785
LeftArm 35.008986 39.930198 -67.852434
LeftForeArm -0.643797 -0.000000 26.755102
LeftHand -25.991777 -0.000000 0.639878
LeftHandThumb1 -26.253704 0.000000 33.147579
RightShoulder -17.376649 13.584118 -23.829790
RightArm -8.271131 -48.532273 100.051201
RightForeArm -21.377323 -0.000000 33.167134
RightHand -4.819632 -0.000000 -0.742093
RightHandThumb1 -24.326973 -0.000000 -32.862282
LeftUpLeg -13.492030 17.381991 -1.255104
LeftLeg -0.688497 -0.000000 0.000000
LeftFoot -11.207758 9.336056 -16.198835
LeftToeBase 8.195380 -0.000000 -0.000000
RightUpLeg -16.050444 -3.170853 0.437080
RightLeg 3.239411 -0.000000 -0.000000
RightFoot -7.024685 -1.720790 -5.367496
RightToeBase -1.677193 -0.000000 0.000000
1143
root -2.992351 32.771858 -6.217618 15.145371 -3.886403 -2.042240
Spine -3.690180 2.905157 -2.028060
Head -13.590766 0.992307 8.253217
LeftShoulder -5.160213 13.272971 12.221773
LeftArm 35.096518 39.994200 -67.750374
LeftForeArm -0.681203 -0.000000 26.717020
LeftHand -26.010076 -0.000000 0.614066
LeftHandThumb1 -26.253704 0.000000 33.147579
RightShoulder -17.407730 13.600841 -23.847068
RightArm -8.298151 -48.509597 100.068366
RightForeArm -21.510411 0.000000 33.512398
RightHand -4.869445 -0.000000 -1.155666
RightHandThumb1 -24.326973 -0.000000 -32.862282
LeftUpLeg -13.477121 17.352259 -1.259900
LeftLeg -0.637903 -0.000000 0.000000
LeftFoot -11.206265 9.314638 -16.163516
LeftToeBase 8.192851 -0.000000 -0.000000
RightUpLeg -16.030115 -3.170190 0.415930
RightLeg 3.316065 -0.000000 -0.000000
RightFoot -7.077684 -1.825948 -5.392641
RightToeBase -1.684769 -0.000000 0.000000
1144
root -2.996739 32.771509 -6.217035 15.082298 -3.818401 -2.044311
Spine -3.704077 2.908328 -2.000421
Head -13.675095 0.945366 8.207334
LeftShoulder -5.131867 13.258692 12.234122
LeftArm 35.106674 40.018528 -67.733131
LeftForeArm -0.729564 -0.000000 26.665122
LeftHand -25.950342 0.000000 0.524988
LeftHandThumb1 -26.253704 0.000000 33.147579
RightShoulder -17.449190 13.589420 -23.857939
RightArm -8.258801 -48.499847 100.042959
RightForeArm -21.424630 -0.000000 33.852275
RightHand -4.877411 -0.000000 -0.924367
RightHandThumb1 -24.326973 -0.000000 -32.862282
LeftUpLeg -13.443451 17.354853 -1.229760
LeftLeg -0.593025 -0.000000 0.000000
LeftFoot -11.214129 9.246238 -16.146160
LeftToeBase 8.209158 -0.000000 -0.000000
RightUpLeg -15.993375 -3.153619 0.419564
RightLeg 3.387721 -0.000000 -0.000000
RightFoot -7.115081 -1.925647 -5.416158
RightToeBase -1.701406 -0.000000 0.000000
1145
root -2.997291 32.771144 -6.215230 15.018857 -3.744581 -2.021410
Spine -3.727033 2.882746 -1.992314
Head -13.748613 0.972815 8.183976
LeftShoulder -5.133167 13.253398 12.231626
LeftArm 35.122451 40.067909 -67.685994
LeftForeArm -0.786524 0.000000 26.627601
LeftHand -25.844440 0.000000 0.487403
LeftHandThumb1 -26.253704 0.000000 33.147579
RightShoulder -17.436656 13.545165 -23.848418
RightArm -8.185906 -48.473327 99.983173
RightForeArm -21.496546 -0.000000 34.181023
RightHand -4.753909 0.000000 -0.894753
RightHandThumb1 -24.326973 -0.000000 -32.862282
LeftUpLeg -13.410522 17.343675 -1.235865
LeftLeg -0.540093 -0.000000 0.000000
LeftFoot -11.226838 9.211924 -16.136749
LeftToeBase 8.205819 -0.000000 -0.000000
RightUpLeg -15.956464 -3.141722 0.394423
RightLeg 3.463829 -0.000000 -0.000000
RightFoot -7.166536 -2.021314 -5.392049
RightToeBase -1.689761 -0.000000 0.000000
